<mxfile host="app.diagrams.net" modified="2023-09-08T10:46:29.047Z" agent="Mozilla/5.0 (Windows NT 10.0; Win64; x64) AppleWebKit/537.36 (KHTML, like Gecko) Chrome/116.0.0.0 Safari/537.36" etag="BpJ5f7eMxdjGaJpjccn1" version="21.7.2" type="github">
  <diagram name="페이지-1" id="F9603bOiJhwxSnAY44Lq">
    <mxGraphModel dx="818" dy="719" grid="1" gridSize="10" guides="1" tooltips="1" connect="1" arrows="0" fold="1" page="1" pageScale="1" pageWidth="827" pageHeight="1169" math="0" shadow="0">
      <root>
        <mxCell id="0" />
        <mxCell id="1" parent="0" />
        <mxCell id="6TB45uW-G1AER_8hJ00T-1" value="이용자" style="shape=umlActor;verticalLabelPosition=bottom;verticalAlign=top;html=1;" parent="1" vertex="1">
          <mxGeometry x="20" y="350" width="30" height="60" as="geometry" />
        </mxCell>
        <mxCell id="6TB45uW-G1AER_8hJ00T-2" value="게시판 서비스" style="shape=umlFrame;whiteSpace=wrap;html=1;pointerEvents=0;width=130;height=30;" parent="1" vertex="1">
          <mxGeometry x="90" y="110" width="580" height="670" as="geometry" />
        </mxCell>
        <mxCell id="6TB45uW-G1AER_8hJ00T-15" style="rounded=0;orthogonalLoop=1;jettySize=auto;html=1;exitX=0;exitY=0.5;exitDx=0;exitDy=0;entryX=1;entryY=0.3333333333333333;entryDx=0;entryDy=0;entryPerimeter=0;endArrow=none;endFill=0;" parent="1" source="6TB45uW-G1AER_8hJ00T-3" target="6TB45uW-G1AER_8hJ00T-1" edge="1">
          <mxGeometry relative="1" as="geometry" />
        </mxCell>
        <mxCell id="6TB45uW-G1AER_8hJ00T-3" value="회원 가입" style="rounded=1;whiteSpace=wrap;html=1;arcSize=40;fontColor=#000000;fillColor=#ffffc0;strokeColor=#ff0000;" parent="1" vertex="1">
          <mxGeometry x="150" y="350" width="120" height="40" as="geometry" />
        </mxCell>
        <mxCell id="6TB45uW-G1AER_8hJ00T-25" style="rounded=0;orthogonalLoop=1;jettySize=auto;html=1;exitX=1;exitY=0.5;exitDx=0;exitDy=0;entryX=0.5;entryY=1;entryDx=0;entryDy=0;dashed=1;" parent="1" source="6TB45uW-G1AER_8hJ00T-5" target="6TB45uW-G1AER_8hJ00T-7" edge="1">
          <mxGeometry relative="1" as="geometry" />
        </mxCell>
        <mxCell id="eSiKurc55ttfTbx6xhmD-6" style="rounded=0;orthogonalLoop=1;jettySize=auto;html=1;exitX=1;exitY=0.5;exitDx=0;exitDy=0;entryX=0;entryY=0.5;entryDx=0;entryDy=0;endArrow=none;endFill=0;" edge="1" parent="1" source="6TB45uW-G1AER_8hJ00T-5" target="eSiKurc55ttfTbx6xhmD-1">
          <mxGeometry relative="1" as="geometry" />
        </mxCell>
        <mxCell id="6TB45uW-G1AER_8hJ00T-5" value="게시판 보기" style="rounded=1;whiteSpace=wrap;html=1;arcSize=40;fontColor=#000000;fillColor=#ffffc0;strokeColor=#ff0000;" parent="1" vertex="1">
          <mxGeometry x="150" y="445" width="120" height="40" as="geometry" />
        </mxCell>
        <mxCell id="6TB45uW-G1AER_8hJ00T-26" style="rounded=0;orthogonalLoop=1;jettySize=auto;html=1;exitX=1;exitY=0.5;exitDx=0;exitDy=0;dashed=1;" parent="1" source="6TB45uW-G1AER_8hJ00T-6" target="6TB45uW-G1AER_8hJ00T-7" edge="1">
          <mxGeometry relative="1" as="geometry" />
        </mxCell>
        <mxCell id="6TB45uW-G1AER_8hJ00T-6" value="게시글 보기" style="rounded=1;whiteSpace=wrap;html=1;arcSize=40;fontColor=#000000;fillColor=#ffffc0;strokeColor=#ff0000;" parent="1" vertex="1">
          <mxGeometry x="160" y="600" width="120" height="40" as="geometry" />
        </mxCell>
        <mxCell id="6TB45uW-G1AER_8hJ00T-21" style="edgeStyle=orthogonalEdgeStyle;rounded=0;orthogonalLoop=1;jettySize=auto;html=1;exitX=1;exitY=0.5;exitDx=0;exitDy=0;dashed=1;startArrow=none;startFill=0;" parent="1" source="6TB45uW-G1AER_8hJ00T-7" target="6TB45uW-G1AER_8hJ00T-8" edge="1">
          <mxGeometry relative="1" as="geometry" />
        </mxCell>
        <mxCell id="6TB45uW-G1AER_8hJ00T-23" value="&amp;lt;&amp;lt;include&amp;gt;&amp;gt;" style="edgeLabel;html=1;align=center;verticalAlign=middle;resizable=0;points=[];" parent="6TB45uW-G1AER_8hJ00T-21" vertex="1" connectable="0">
          <mxGeometry x="-0.2353" relative="1" as="geometry">
            <mxPoint x="13" as="offset" />
          </mxGeometry>
        </mxCell>
        <mxCell id="6TB45uW-G1AER_8hJ00T-7" value="회원 로그인&amp;nbsp;" style="rounded=1;whiteSpace=wrap;html=1;arcSize=40;fontColor=#000000;fillColor=#ffffc0;strokeColor=#ff0000;" parent="1" vertex="1">
          <mxGeometry x="270" y="180" width="120" height="40" as="geometry" />
        </mxCell>
        <mxCell id="eSiKurc55ttfTbx6xhmD-5" style="rounded=0;orthogonalLoop=1;jettySize=auto;html=1;exitX=1;exitY=0.5;exitDx=0;exitDy=0;entryX=0;entryY=0.5;entryDx=0;entryDy=0;endArrow=none;endFill=0;" edge="1" parent="1" source="6TB45uW-G1AER_8hJ00T-8" target="eSiKurc55ttfTbx6xhmD-1">
          <mxGeometry relative="1" as="geometry" />
        </mxCell>
        <mxCell id="6TB45uW-G1AER_8hJ00T-8" value="인증" style="rounded=1;whiteSpace=wrap;html=1;arcSize=40;fontColor=#000000;fillColor=#ffffc0;strokeColor=#ff0000;" parent="1" vertex="1">
          <mxGeometry x="520" y="180" width="120" height="40" as="geometry" />
        </mxCell>
        <mxCell id="6TB45uW-G1AER_8hJ00T-22" style="rounded=0;orthogonalLoop=1;jettySize=auto;html=1;exitX=0;exitY=0.5;exitDx=0;exitDy=0;entryX=1;entryY=0.5;entryDx=0;entryDy=0;endArrow=classicThin;endFill=1;dashed=1;" parent="1" source="6TB45uW-G1AER_8hJ00T-9" target="6TB45uW-G1AER_8hJ00T-7" edge="1">
          <mxGeometry relative="1" as="geometry" />
        </mxCell>
        <mxCell id="6TB45uW-G1AER_8hJ00T-24" value="&amp;lt;&amp;lt;extend&amp;gt;&amp;gt;" style="edgeLabel;html=1;align=center;verticalAlign=middle;resizable=0;points=[];" parent="6TB45uW-G1AER_8hJ00T-22" vertex="1" connectable="0">
          <mxGeometry x="-0.0858" y="2" relative="1" as="geometry">
            <mxPoint y="-1" as="offset" />
          </mxGeometry>
        </mxCell>
        <mxCell id="6TB45uW-G1AER_8hJ00T-9" value="로그인 실패" style="rounded=1;whiteSpace=wrap;html=1;arcSize=40;fontColor=#000000;fillColor=#ffffc0;strokeColor=#ff0000;" parent="1" vertex="1">
          <mxGeometry x="510" y="290" width="120" height="40" as="geometry" />
        </mxCell>
        <mxCell id="6TB45uW-G1AER_8hJ00T-27" style="rounded=0;orthogonalLoop=1;jettySize=auto;html=1;exitX=0;exitY=0.5;exitDx=0;exitDy=0;entryX=1;entryY=0.5;entryDx=0;entryDy=0;dashed=1;" parent="1" source="6TB45uW-G1AER_8hJ00T-11" target="6TB45uW-G1AER_8hJ00T-5" edge="1">
          <mxGeometry relative="1" as="geometry" />
        </mxCell>
        <mxCell id="6TB45uW-G1AER_8hJ00T-11" value="게시판 정렬" style="rounded=1;whiteSpace=wrap;html=1;arcSize=40;fontColor=#000000;fillColor=#ffffc0;strokeColor=#ff0000;" parent="1" vertex="1">
          <mxGeometry x="400" y="370" width="150" height="40" as="geometry" />
        </mxCell>
        <mxCell id="6TB45uW-G1AER_8hJ00T-28" style="rounded=0;orthogonalLoop=1;jettySize=auto;html=1;exitX=0;exitY=0.5;exitDx=0;exitDy=0;dashed=1;entryX=1;entryY=0.5;entryDx=0;entryDy=0;" parent="1" source="6TB45uW-G1AER_8hJ00T-12" target="6TB45uW-G1AER_8hJ00T-5" edge="1">
          <mxGeometry relative="1" as="geometry" />
        </mxCell>
        <mxCell id="6TB45uW-G1AER_8hJ00T-12" value="게시판 검색" style="rounded=1;whiteSpace=wrap;html=1;arcSize=40;fontColor=#000000;fillColor=#ffffc0;strokeColor=#ff0000;" parent="1" vertex="1">
          <mxGeometry x="400" y="480" width="150" height="40" as="geometry" />
        </mxCell>
        <mxCell id="6TB45uW-G1AER_8hJ00T-30" style="rounded=0;orthogonalLoop=1;jettySize=auto;html=1;exitX=0;exitY=0.5;exitDx=0;exitDy=0;entryX=1;entryY=0.5;entryDx=0;entryDy=0;dashed=1;" parent="1" source="6TB45uW-G1AER_8hJ00T-13" target="6TB45uW-G1AER_8hJ00T-6" edge="1">
          <mxGeometry relative="1" as="geometry" />
        </mxCell>
        <mxCell id="eSiKurc55ttfTbx6xhmD-8" style="rounded=0;orthogonalLoop=1;jettySize=auto;html=1;exitX=1;exitY=0.5;exitDx=0;exitDy=0;entryX=0;entryY=0.5;entryDx=0;entryDy=0;endArrow=none;endFill=0;" edge="1" parent="1" source="6TB45uW-G1AER_8hJ00T-13" target="eSiKurc55ttfTbx6xhmD-1">
          <mxGeometry relative="1" as="geometry" />
        </mxCell>
        <mxCell id="6TB45uW-G1AER_8hJ00T-13" value="게시글 쓰기,수정,삭제" style="rounded=1;whiteSpace=wrap;html=1;arcSize=40;fontColor=#000000;fillColor=#ffffc0;strokeColor=#ff0000;" parent="1" vertex="1">
          <mxGeometry x="400" y="600" width="150" height="40" as="geometry" />
        </mxCell>
        <mxCell id="6TB45uW-G1AER_8hJ00T-31" style="rounded=0;orthogonalLoop=1;jettySize=auto;html=1;exitX=0;exitY=0.5;exitDx=0;exitDy=0;dashed=1;" parent="1" source="6TB45uW-G1AER_8hJ00T-14" edge="1">
          <mxGeometry relative="1" as="geometry">
            <mxPoint x="280" y="620" as="targetPoint" />
          </mxGeometry>
        </mxCell>
        <mxCell id="eSiKurc55ttfTbx6xhmD-9" style="rounded=0;orthogonalLoop=1;jettySize=auto;html=1;exitX=1;exitY=0.5;exitDx=0;exitDy=0;endArrow=none;endFill=0;entryX=0;entryY=0.5;entryDx=0;entryDy=0;" edge="1" parent="1" source="6TB45uW-G1AER_8hJ00T-14" target="eSiKurc55ttfTbx6xhmD-1">
          <mxGeometry relative="1" as="geometry">
            <mxPoint x="720" y="460" as="targetPoint" />
          </mxGeometry>
        </mxCell>
        <mxCell id="6TB45uW-G1AER_8hJ00T-14" value="댓글 보기,쓰기,수정,삭제" style="rounded=1;whiteSpace=wrap;html=1;arcSize=40;fontColor=#000000;fillColor=#ffffc0;strokeColor=#ff0000;" parent="1" vertex="1">
          <mxGeometry x="400" y="680" width="150" height="40" as="geometry" />
        </mxCell>
        <mxCell id="6TB45uW-G1AER_8hJ00T-17" style="rounded=0;orthogonalLoop=1;jettySize=auto;html=1;exitX=0;exitY=0.5;exitDx=0;exitDy=0;endArrow=none;endFill=0;" parent="1" source="6TB45uW-G1AER_8hJ00T-7" target="6TB45uW-G1AER_8hJ00T-1" edge="1">
          <mxGeometry relative="1" as="geometry">
            <mxPoint x="180" y="260" as="sourcePoint" />
            <mxPoint x="60" y="310" as="targetPoint" />
          </mxGeometry>
        </mxCell>
        <mxCell id="6TB45uW-G1AER_8hJ00T-18" style="rounded=0;orthogonalLoop=1;jettySize=auto;html=1;exitX=0;exitY=0.5;exitDx=0;exitDy=0;endArrow=none;endFill=0;entryX=1;entryY=0.3333333333333333;entryDx=0;entryDy=0;entryPerimeter=0;" parent="1" source="6TB45uW-G1AER_8hJ00T-5" target="6TB45uW-G1AER_8hJ00T-1" edge="1">
          <mxGeometry relative="1" as="geometry">
            <mxPoint x="160" y="380" as="sourcePoint" />
            <mxPoint x="60" y="390" as="targetPoint" />
          </mxGeometry>
        </mxCell>
        <mxCell id="6TB45uW-G1AER_8hJ00T-20" style="rounded=0;orthogonalLoop=1;jettySize=auto;html=1;exitX=0;exitY=0.25;exitDx=0;exitDy=0;endArrow=none;endFill=0;entryX=1;entryY=0.3333333333333333;entryDx=0;entryDy=0;entryPerimeter=0;" parent="1" source="6TB45uW-G1AER_8hJ00T-6" target="6TB45uW-G1AER_8hJ00T-1" edge="1">
          <mxGeometry relative="1" as="geometry">
            <mxPoint x="180" y="595" as="sourcePoint" />
            <mxPoint x="80" y="500" as="targetPoint" />
          </mxGeometry>
        </mxCell>
        <mxCell id="eSiKurc55ttfTbx6xhmD-1" value="DB" style="html=1;dropTarget=0;whiteSpace=wrap;" vertex="1" parent="1">
          <mxGeometry x="720" y="420" width="80" height="90" as="geometry" />
        </mxCell>
        <mxCell id="eSiKurc55ttfTbx6xhmD-4" style="edgeStyle=orthogonalEdgeStyle;rounded=0;orthogonalLoop=1;jettySize=auto;html=1;exitX=0.5;exitY=1;exitDx=0;exitDy=0;" edge="1" parent="1" source="6TB45uW-G1AER_8hJ00T-8" target="6TB45uW-G1AER_8hJ00T-8">
          <mxGeometry relative="1" as="geometry" />
        </mxCell>
        <mxCell id="eSiKurc55ttfTbx6xhmD-7" style="rounded=0;orthogonalLoop=1;jettySize=auto;html=1;exitX=1;exitY=0.5;exitDx=0;exitDy=0;entryX=0;entryY=0.5;entryDx=0;entryDy=0;endArrow=none;endFill=0;" edge="1" parent="1" source="6TB45uW-G1AER_8hJ00T-6" target="eSiKurc55ttfTbx6xhmD-1">
          <mxGeometry relative="1" as="geometry">
            <mxPoint x="330" y="565" as="sourcePoint" />
            <mxPoint x="770" y="490" as="targetPoint" />
          </mxGeometry>
        </mxCell>
      </root>
    </mxGraphModel>
  </diagram>
</mxfile>
